<svg width="236" height="212" viewBox="0 0 236 212" fill="none" xmlns="http://www.w3.org/2000/svg">
<path d="M25.9756 104.182L52.7108 75.5983H63.2242L82.149 53.6344L96.2652 69.278L115.791 50.6238H119.095L131.711 35.5786L168.056 77.1017L174.365 70.7851L217.92 106.287L173.764 84.3232L161.448 91.2456L131.711 73.4927L117.893 81.9185L132.61 60.8559L126.603 50.0217L116.392 68.6796L118.494 55.1378L82.149 90.3406L84.8521 73.4927L87.8538 68.6796L82.7501 62.6586L76.7393 75.8975L77.9415 65.067L66.827 78.6088L54.8127 79.5101L25.9756 104.182Z" fill="white"/>
<path d="M17.3655 70.7972C16.2739 70.7972 15.3926 69.9107 15.3926 68.821V1.97623C15.3926 0.882841 16.2776 0 17.3655 0H67.0634C68.155 0 69.0363 0.886535 69.0363 1.97623C69.0363 3.06963 68.1513 3.95247 67.0634 3.95247H21.3149C20.2234 3.95247 19.342 4.839 19.342 5.9287V68.8173C19.342 69.9143 18.457 70.7972 17.3655 70.7972Z" fill="white"/>
<path d="M223.82 70.7972C222.729 70.7972 221.847 69.9106 221.847 68.8209V5.93236C221.847 4.83897 220.962 3.95613 219.875 3.95613H174.122C173.031 3.95613 172.149 3.06959 172.149 1.9799C172.149 0.886503 173.034 0.00366211 174.122 0.00366211H223.82C224.912 0.00366211 225.793 0.890197 225.793 1.9799V68.8246C225.793 69.9143 224.908 70.7972 223.82 70.7972Z" fill="white"/>
<path d="M223.82 210H174.122C173.031 210 172.149 209.113 172.149 208.024C172.149 206.93 173.034 206.048 174.122 206.048H219.871C220.962 206.048 221.844 205.161 221.844 204.071V158.581C221.844 157.488 222.729 156.605 223.817 156.605C224.908 156.605 225.789 157.491 225.789 158.581V208.02C225.793 209.113 224.908 210 223.82 210Z" fill="white"/>
<path d="M67.0634 210H17.3655C16.2739 210 15.3926 209.113 15.3926 208.024V158.581C15.3926 157.488 16.2776 156.605 17.3655 156.605C18.457 156.605 19.3383 157.491 19.3383 158.581V204.068C19.3383 205.161 20.2234 206.044 21.3112 206.044H67.0598C68.1513 206.044 69.0326 206.93 69.0326 208.02C69.0363 209.113 68.155 210 67.0634 210Z" fill="white"/>
<path d="M37.804 143.408L31.837 130.743C31.7917 130.641 31.7407 130.516 31.684 130.369C31.6273 130.222 31.5707 130.069 31.514 129.91C31.5253 130.046 31.531 130.199 31.531 130.369C31.5423 130.528 31.548 130.664 31.548 130.777V143H26.652V119.2H31.582L37.328 131.865C37.4527 132.114 37.5603 132.358 37.651 132.596C37.7417 132.823 37.8267 133.066 37.906 133.327C37.9967 133.066 38.0873 132.817 38.178 132.579C38.2687 132.33 38.365 132.092 38.467 131.865L44.366 119.2H48.922V143H44.043V130.743C44.043 130.607 44.043 130.46 44.043 130.301C44.043 130.131 44.0487 129.995 44.06 129.893C44.0033 130.029 43.941 130.171 43.873 130.318C43.8163 130.465 43.7597 130.596 43.703 130.709L37.804 143.408ZM60.9442 143V119.2H65.8402V143H60.9442ZM77.8711 143V119.2H89.1931C91.1878 119.2 92.7688 119.551 93.9361 120.254C95.1148 120.945 95.9535 121.869 96.4521 123.025C96.9621 124.17 97.2171 125.411 97.2171 126.748C97.2171 127.643 97.0471 128.55 96.7071 129.468C96.3785 130.386 95.8798 131.225 95.2111 131.984C94.5425 132.732 93.7151 133.287 92.7291 133.65L97.2851 143H91.8111L87.4251 134.381H82.7671V143H77.8711ZM82.7671 129.774H89.2611C89.9865 129.774 90.5588 129.632 90.9781 129.349C91.4088 129.066 91.7091 128.697 91.8791 128.244C92.0605 127.779 92.1511 127.286 92.1511 126.765C92.1511 126.289 92.0661 125.824 91.8961 125.371C91.7375 124.918 91.4428 124.544 91.0121 124.249C90.5928 123.954 90.0091 123.807 89.2611 123.807H82.7671V129.774ZM106.176 143L115.458 119.2H120.116L129.415 143H124.094L122.275 138.223H113.282L111.497 143H106.176ZM114.914 133.718H120.626L118.467 128.159C118.399 127.989 118.32 127.796 118.229 127.581C118.138 127.354 118.053 127.128 117.974 126.901C117.895 126.674 117.827 126.47 117.77 126.289C117.713 126.47 117.645 126.674 117.566 126.901C117.487 127.128 117.402 127.354 117.311 127.581C117.22 127.796 117.141 127.989 117.073 128.159L114.914 133.718ZM147.5 143.357C145.63 143.357 144.055 143 142.774 142.286C141.493 141.572 140.462 140.626 139.68 139.447C138.898 138.257 138.331 136.942 137.98 135.503C137.64 134.052 137.47 132.585 137.47 131.1C137.47 129.717 137.646 128.306 137.997 126.867C138.36 125.428 138.932 124.096 139.714 122.872C140.496 121.648 141.527 120.662 142.808 119.914C144.089 119.166 145.653 118.792 147.5 118.792C149.007 118.792 150.333 119.058 151.478 119.591C152.623 120.124 153.575 120.815 154.334 121.665C155.105 122.504 155.683 123.393 156.068 124.334L151.716 126.306C151.319 125.717 150.923 125.212 150.526 124.793C150.129 124.374 149.687 124.051 149.2 123.824C148.713 123.597 148.146 123.484 147.5 123.484C146.559 123.484 145.772 123.716 145.137 124.181C144.502 124.646 143.992 125.258 143.607 126.017C143.233 126.776 142.961 127.604 142.791 128.499C142.621 129.383 142.536 130.25 142.536 131.1C142.536 131.984 142.632 132.874 142.825 133.769C143.018 134.664 143.312 135.48 143.709 136.217C144.106 136.954 144.616 137.549 145.239 138.002C145.874 138.444 146.627 138.665 147.5 138.665C148.407 138.665 149.194 138.382 149.863 137.815C150.532 137.237 151.138 136.5 151.682 135.605L156.136 137.288C155.592 138.455 154.923 139.498 154.13 140.416C153.337 141.334 152.39 142.054 151.291 142.575C150.203 143.096 148.939 143.357 147.5 143.357ZM166.47 143V119.2H171.366V138.274H182.807V143H166.47ZM192.595 143V119.2H209.323V123.841H197.491V128.397H204.24V133.038H197.491V138.325H210.02V143H192.595Z" fill="white"/>
<path opacity="0.8" d="M72.4102 159.523H75.9648L78.0771 163.529L80.0767 159.523H83.3477V160.617H82.2539V166.906H83.3477V168H78.9727V166.906H80.0664V161.974L77.8789 166.359H77.1953L74.8711 161.957V166.906H75.9648V168H72.4102V166.906H73.5039V160.617H72.4102V159.523ZM89.768 159.523H94.143V160.617H93.0492V166.906H94.143V168H89.768V166.906H90.8617V160.617H89.768V159.523ZM100.563 159.523H103.605L107.126 163.666V160.617H106.032V159.523H109.587V160.617H108.493V168H107.673L103.024 162.531V166.906H104.118V168H100.563V166.906H101.657V160.617H100.563V159.523ZM120.314 168H115.939V166.906H117.032V160.617H115.939V159.523H120.314C120.804 159.523 121.266 159.578 121.701 159.688C122.137 159.795 122.522 159.945 122.857 160.139C123.194 160.33 123.496 160.558 123.762 160.822C124.031 161.087 124.252 161.376 124.425 161.69C124.601 162.005 124.734 162.338 124.825 162.688C124.917 163.037 124.962 163.395 124.962 163.762C124.962 164.129 124.917 164.487 124.825 164.838C124.734 165.187 124.601 165.519 124.425 165.833C124.252 166.147 124.031 166.437 123.762 166.701C123.496 166.965 123.194 167.194 122.857 167.388C122.522 167.58 122.137 167.73 121.701 167.839C121.266 167.946 120.804 168 120.314 168ZM120.314 166.906C120.669 166.906 120.987 166.828 121.267 166.67C121.548 166.511 121.777 166.29 121.954 166.007C122.134 165.725 122.27 165.394 122.361 165.016C122.454 164.636 122.501 164.217 122.501 163.762C122.501 163.397 122.474 163.058 122.419 162.743C122.364 162.429 122.279 162.14 122.163 161.878C122.047 161.614 121.903 161.39 121.732 161.205C121.564 161.018 121.358 160.874 121.117 160.771C120.875 160.668 120.608 160.617 120.314 160.617H119.22V166.906H120.314ZM133.365 161.438C133.365 161.654 133.415 161.849 133.515 162.022C133.615 162.193 133.75 162.336 133.919 162.453C134.087 162.569 134.281 162.676 134.5 162.774C134.718 162.872 134.949 162.965 135.19 163.054C135.432 163.141 135.673 163.232 135.915 163.328C136.156 163.421 136.386 163.534 136.605 163.666C136.824 163.796 137.018 163.943 137.186 164.107C137.355 164.269 137.489 164.473 137.589 164.719C137.69 164.963 137.74 165.236 137.74 165.539C137.74 165.91 137.658 166.257 137.494 166.578C137.33 166.899 137.104 167.175 136.817 167.405C136.532 167.633 136.186 167.812 135.778 167.942C135.37 168.072 134.93 168.137 134.459 168.137C134.276 168.137 134.084 168.124 133.881 168.099C133.68 168.076 133.467 168.036 133.242 167.979C133.018 167.923 132.803 167.853 132.596 167.771C132.388 167.689 132.189 167.585 131.998 167.46C131.809 167.332 131.643 167.191 131.502 167.036C131.361 166.881 131.248 166.699 131.164 166.489C131.082 166.277 131.041 166.052 131.041 165.812C131.041 165.509 131.147 165.252 131.358 165.04C131.573 164.826 131.831 164.719 132.134 164.719C132.437 164.719 132.695 164.826 132.907 165.04C133.121 165.252 133.228 165.509 133.228 165.812C133.228 166.008 133.18 166.19 133.085 166.356C132.991 166.52 132.864 166.651 132.702 166.749C133.044 166.945 133.492 167.043 134.048 167.043C134.543 167.043 134.917 166.967 135.17 166.814C135.425 166.661 135.552 166.419 135.552 166.086C135.552 165.869 135.502 165.676 135.402 165.505C135.302 165.332 135.167 165.187 134.999 165.071C134.83 164.955 134.636 164.847 134.418 164.75C134.199 164.652 133.969 164.559 133.727 164.473C133.486 164.384 133.244 164.293 133.003 164.199C132.761 164.104 132.531 163.991 132.312 163.861C132.093 163.729 131.9 163.582 131.731 163.42C131.562 163.256 131.428 163.052 131.328 162.808C131.227 162.562 131.177 162.287 131.177 161.984C131.177 161.611 131.251 161.264 131.4 160.945C131.55 160.624 131.76 160.349 132.028 160.122C132.3 159.891 132.632 159.711 133.026 159.582C133.421 159.452 133.852 159.387 134.322 159.387C134.504 159.387 134.693 159.399 134.889 159.424C135.088 159.447 135.294 159.487 135.508 159.544C135.724 159.601 135.932 159.67 136.13 159.752C136.328 159.834 136.517 159.939 136.697 160.067C136.88 160.192 137.037 160.332 137.169 160.487C137.301 160.642 137.406 160.825 137.483 161.034C137.563 161.244 137.603 161.469 137.603 161.711C137.603 162.014 137.496 162.273 137.282 162.487C137.07 162.699 136.812 162.805 136.509 162.805C136.206 162.805 135.948 162.699 135.733 162.487C135.522 162.273 135.416 162.014 135.416 161.711C135.416 161.508 135.467 161.322 135.569 161.154C135.672 160.983 135.808 160.85 135.976 160.754C135.673 160.572 135.258 160.48 134.732 160.48C134.251 160.48 133.903 160.556 133.686 160.706C133.472 160.854 133.365 161.098 133.365 161.438ZM144.023 159.523H151.406V162.258H150.176V161.711C150.176 161.599 150.166 161.484 150.145 161.366C150.127 161.247 150.097 161.13 150.056 161.014C150.017 160.897 149.96 160.803 149.885 160.73C149.81 160.655 149.725 160.617 149.629 160.617H147.305V163.625H148.535V162.395H149.629V165.949H148.535V164.719H147.305V166.906H149.766C149.861 166.906 149.947 166.87 150.022 166.797C150.097 166.722 150.154 166.626 150.193 166.51C150.234 166.394 150.264 166.276 150.282 166.158C150.302 166.039 150.312 165.924 150.312 165.812V165.266H151.543V168H144.023V166.906H145.117V160.617H144.023V159.523ZM158.032 159.523H165.961V162.258H164.731V161.711C164.731 161.599 164.721 161.484 164.7 161.366C164.682 161.247 164.652 161.13 164.611 161.014C164.572 160.897 164.516 160.803 164.44 160.73C164.365 160.655 164.28 160.617 164.184 160.617H163.09V166.906H164.184V168H159.809V166.906H160.903V160.617H159.809C159.713 160.617 159.628 160.655 159.553 160.73C159.477 160.803 159.419 160.897 159.378 161.014C159.34 161.13 159.31 161.247 159.289 161.366C159.271 161.484 159.262 161.599 159.262 161.711V162.258H158.032V159.523Z" fill="white"/>
<path d="M145.29 21.0303L149.96 16.3604C150.175 16.1455 150.238 15.8232 150.123 15.543C150.007 15.2627 149.733 15.0801 149.43 15.0801H132.5V13.75C132.5 13.3359 132.164 13 131.75 13C131.336 13 131 13.3359 131 13.75V39.75C131 40.1641 131.336 40.5 131.75 40.5C132.164 40.5 132.5 40.1641 132.5 39.75V26.9805H149.43C149.733 26.9805 150.007 26.7979 150.123 26.5176C150.238 26.2373 150.175 25.915 149.96 25.7002L145.29 21.0303ZM132.5 25.4805V16.5801H147.619L143.699 20.5C143.406 20.793 143.406 21.2676 143.699 21.5605L147.619 25.4805H132.5Z" fill="white"/>
</svg>
